<svg width="64" height="40" viewBox="0 0 64 40" fill="none" xmlns="http://www.w3.org/2000/svg">
<g filter="url(#filter0_d_57_17)">
<path opacity="0.15" fill-rule="evenodd" clip-rule="evenodd" d="M13.1776 4.88136C12.1321 4.88136 11.057 4.24358 11.057 5.15255L10.8293 27.1186C10.8293 28.0276 10.2391 28.4746 11.2846 28.4746L45.359 28.7458C46.4046 28.7458 47.4797 29.6547 47.4797 28.7458V5.42373C47.4797 4.51477 46.4046 4.88136 45.359 4.88136H13.1776ZM44.4125 10.5763H13.7887V21.4237H44.4125V10.5763Z" fill="url(#paint0_linear_57_17)"/>
<path fill-rule="evenodd" clip-rule="evenodd" d="M5.04363 29.7084H10.2253C9.84252 29.6029 9.55541 29.2109 9.55541 28.7536V0.98492C9.55996 0.447234 9.96101 0 10.4532 0H47.9055C48.3931 0 48.7987 0.447234 48.7987 0.98492V9.35674L47.3951 9.8291V5.0653H11.0867V28.4722H47.3951V22.4321L47.8599 22.3466C48.1744 22.2863 48.4706 22.1758 48.7395 22.02L48.8033 22.0049V28.7436C48.8033 29.2009 48.5162 29.5878 48.1333 29.6984H53.552C54.1263 29.6984 54.5957 30.2159 54.5957 30.8491C54.5957 31.4873 54.1263 31.9999 53.552 31.9999H5.04363C4.46941 32.0099 4 31.4923 4 30.8541C4 30.226 4.46941 29.7084 5.04363 29.7084ZM39.9985 17.6381C40.477 18.2059 41.0102 19.3667 40.9054 20.3718L47.3768 19.1607C47.1353 17.1406 46.5975 15.2864 45.5584 13.7135C43.4621 15.2813 42.2589 16.2562 39.9985 17.6381ZM29.5303 23.4572C32.5563 22.4672 35.7921 26.0099 38.367 23.2612C39.0506 22.5326 39.5154 21.3567 39.4562 20.2562C39.4288 19.814 39.324 19.3868 39.1098 19.01C39.0141 18.8441 38.9002 18.6884 38.768 18.5326C37.1182 16.6783 34.5616 17.412 32.8799 18.8341C31.335 20.1456 30.2275 22.0954 29.5303 23.4572ZM46.4198 13.5326C47.3951 15.2361 48.0103 17.0049 48.2336 18.8492L58.7474 12.5628C59.6179 12.1306 60.1739 11.6884 59.9505 10.4321C59.7774 10.0201 59.5404 9.74368 59.2396 9.60297C58.9434 9.46227 58.5879 9.46227 58.1686 9.60297L46.4198 13.5326ZM14.1993 10.3919H44.3918C44.5695 10.3919 44.729 10.4623 44.8521 10.5829C44.492 10.6834 44.1457 10.8542 43.8267 11.1155L43.7628 11.1708C42.3182 12.2512 43.3162 11.4974 42.938 11.7839L42.7101 11.9597H14.9103V20.0652H27.9853C27.6526 20.613 27.361 21.1456 27.1103 21.623H14.1993C13.8074 21.623 13.493 21.2713 13.493 20.8441V11.1708C13.493 10.7437 13.8074 10.3919 14.1993 10.3919ZM40.4497 8.57785C40.0577 8.57785 39.7433 8.23112 39.7433 7.79896C39.7433 7.3668 40.0623 7.02007 40.4497 7.02007H43.298C43.6899 7.02007 44.0044 7.3668 44.0044 7.79896C44.0044 8.23112 43.6899 8.57785 43.298 8.57785H40.4497ZM33.4131 8.57785C33.0212 8.57785 32.7067 8.23112 32.7067 7.79896C32.7067 7.3668 33.0257 7.02007 33.4131 7.02007H36.2615C36.6534 7.02007 36.9678 7.3668 36.9678 7.79896C36.9678 8.23112 36.6488 8.57785 36.2615 8.57785H33.4131ZM26.372 8.57785C25.9801 8.57785 25.6656 8.23112 25.6656 7.79896C25.6656 7.3668 25.9801 7.02007 26.372 7.02007H29.2204C29.6123 7.02007 29.9267 7.3668 29.9267 7.79896C29.9267 8.23112 29.6123 8.57785 29.2204 8.57785H26.372ZM15.4389 2.36682C15.8309 2.36682 16.1499 2.71858 16.1499 3.15074C16.1499 3.5829 15.8309 3.93466 15.4389 3.93466C15.047 3.93466 14.728 3.5829 14.728 3.15074C14.728 2.71858 15.0516 2.36682 15.4389 2.36682ZM17.8452 2.36682C18.2372 2.36682 18.5516 2.71858 18.5516 3.15074C18.5516 3.5829 18.2326 3.93466 17.8452 3.93466C17.4578 3.93466 17.1343 3.5829 17.1343 3.15074C17.1343 2.71858 17.4533 2.36682 17.8452 2.36682ZM13.0372 2.36682C13.4292 2.36682 13.7482 2.71858 13.7482 3.15074C13.7482 3.5829 13.4292 3.93466 13.0372 3.93466C12.6453 3.93466 12.3263 3.5829 12.3263 3.15074C12.3263 2.71858 12.6453 2.36682 13.0372 2.36682ZM27.8258 30.1406H30.7653C31.0433 30.1406 31.2666 30.3918 31.2666 30.6933C31.2666 30.9999 31.0387 31.2461 30.7653 31.2461H27.8258C27.5478 31.2461 27.3245 30.9948 27.3245 30.6933C27.3245 30.3818 27.5478 30.1406 27.8258 30.1406Z" fill="url(#paint1_linear_57_17)"/>
</g>
<defs>
<filter id="filter0_d_57_17" x="0" y="0" width="64" height="40" filterUnits="userSpaceOnUse" color-interpolation-filters="sRGB">
<feFlood flood-opacity="0" result="BackgroundImageFix"/>
<feColorMatrix in="SourceAlpha" type="matrix" values="0 0 0 0 0 0 0 0 0 0 0 0 0 0 0 0 0 0 127 0" result="hardAlpha"/>
<feOffset dy="4"/>
<feGaussianBlur stdDeviation="2"/>
<feComposite in2="hardAlpha" operator="out"/>
<feColorMatrix type="matrix" values="0 0 0 0 0 0 0 0 0 0 0 0 0 0 0 0 0 0 0.25 0"/>
<feBlend mode="normal" in2="BackgroundImageFix" result="effect1_dropShadow_57_17"/>
<feBlend mode="normal" in="SourceGraphic" in2="effect1_dropShadow_57_17" result="shape"/>
</filter>
<linearGradient id="paint0_linear_57_17" x1="13.3227" y1="4.88136" x2="31.6036" y2="35.3057" gradientUnits="userSpaceOnUse">
<stop offset="0.305" stop-color="#FFDB6E"/>
<stop offset="1" stop-color="#FFBC5E"/>
</linearGradient>
<linearGradient id="paint1_linear_57_17" x1="32" y1="0" x2="32" y2="32" gradientUnits="userSpaceOnUse">
<stop offset="0.2" stop-color="#FFDB6E"/>
<stop offset="1" stop-color="#FFBC5E"/>
</linearGradient>
</defs>
</svg>
